# xmcd CD database file
#
# Track frame offsets:
#	150
#	13698
#	27621
#	40194
#	54792
#	66090
#	76863
#	89511
#	100059
#	116082
#
# Disc length: 1740 seconds
#
# Revision: 0
# Processed by: cddbd v1.5.2PL0 Copyright (c) Steve Scherf et al.
# Submitted via: CDex 1.70beta2
#
DISCID=7706ca0a
DTITLE=Tucker, Tanya - USA - Tanya Tucker
DYEAR=1900
DGENRE=Country
TTITLE0=Lizzie and the Rainman
TTITLE1=Love of a Rolling Stone
TTITLE2=San Antonio Stroll
TTITLE3=I'm Not Lisa
TTITLE4=The King of Country Music
TTITLE5=When Will I Be Loved
TTITLE6=The Serenade That We Played
TTITLE7=Son-of-a Preacher Man
TTITLE8=Someday Soon
TTITLE9=Traveling Salesman
EXTD=
EXTT0=
EXTT1=
EXTT2=
EXTT3=
EXTT4=
EXTT5=
EXTT6=
EXTT7=
EXTT8=
EXTT9=
PLAYORDER=
